<svg xmlns="http://www.w3.org/2000/svg" width="1200" height="630" viewBox="0 0 1200 630" role="img" aria-label="Saffron Voyage">
  <defs>
    <linearGradient id="bg" x1="0" y1="0" x2="1" y2="1">
      <stop offset="0" stop-color="#ffffff"/>
      <stop offset="1" stop-color="#f8fafc"/>
    </linearGradient>
    <linearGradient id="mark" x1="0" y1="0" x2="1" y2="1">
      <stop offset="0" stop-color="#111827"/>
      <stop offset="1" stop-color="#0ea5e9"/>
    </linearGradient>
  </defs>
  <rect width="1200" height="630" fill="url(#bg)"/>
  <g opacity="0.10" transform="translate(292,315)">
    <rect x="-204" y="-235" width="1040" height="470" rx="28" fill="none" stroke="#0f172a" stroke-width="2"/>
  </g>
  <g>
    <rect x="88" y="241" width="148" height="148" rx="33" fill="url(#mark)"/>
    <g transform="translate(125 278) scale(2.3125)">
      <circle cx="32" cy="32" r="22" fill="none" stroke="rgb(255, 255, 255)" stroke-width="4"/><line x1="32" y1="6" x2="32" y2="12" stroke="rgb(255, 255, 255)" stroke-width="3" stroke-linecap="round"/><line x1="32" y1="52" x2="32" y2="58" stroke="rgb(255, 255, 255)" stroke-width="3" stroke-linecap="round"/><line x1="6" y1="32" x2="12" y2="32" stroke="rgb(255, 255, 255)" stroke-width="3" stroke-linecap="round"/><line x1="52" y1="32" x2="58" y2="32" stroke="rgb(255, 255, 255)" stroke-width="3" stroke-linecap="round"/><polygon points="32,12 40,32 32,52 24,32" fill="rgb(255, 255, 255)"/><polygon points="32,12 40,32 32,32" fill="rgb(9, 55, 79)"/><polygon points="29,29 35,29 35,35 29,35" fill="rgb(255, 255, 255)"/>
    </g>
    
  </g>
  <text x="292" y="290" font-family="Inter, Inter, system-ui, sans-serif"
        font-size="72" font-weight="800" fill="#0f172a">Saffron Voyage</text>
  <rect x="292" y="308" width="92" height="5" rx="2.5" fill="#0284c7"/>
  <text x="292" y="352" font-family="Inter, Inter, system-ui, sans-serif"
        font-size="30" fill="#64748b">Journeys woven from local story.</text>
</svg>
